<?xml version="1.0" encoding="UTF-8"?>
<svg id="Layer_9" data-name="Layer 9" xmlns="http://www.w3.org/2000/svg" viewBox="0 0 3275.83 921.48">
  <defs>
    <style>
      .cls-1 {
        fill: #6e830a;
      }

      .cls-2 {
        fill: none;
        stroke: #fff;
        stroke-linecap: round;
        stroke-miterlimit: 10;
        stroke-width: 50px;
      }
    </style>
  </defs>
  <g>
    <path class="cls-1" d="M778.24,142.12c210.06,200.71,176.39,546.83-70.43,700.68-196.13,122.26-452.67,68.54-585.66-118.08C-18.28,527.65,24.26,250.08,219.04,107.06,389.78-18.31,625.33-3.98,778.24,142.12Z"/>
    <g>
      <line class="cls-2" x1="160" y1="444.48" x2="160" y2="523.36"/>
      <line class="cls-2" x1="239.14" y1="481.63" x2="239.14" y2="605.92"/>
      <g>
        <line class="cls-2" x1="319.47" y1="196.43" x2="319.47" y2="329.67"/>
        <line class="cls-2" x1="319.47" y1="397.75" x2="319.47" y2="682.16"/>
      </g>
      <line class="cls-2" x1="399.79" y1="206.55" x2="399.79" y2="677.38"/>
      <line class="cls-2" x1="478.93" y1="163.7" x2="478.93" y2="636.33"/>
      <line class="cls-2" x1="204.23" y1="685.68" x2="252.03" y2="685.68"/>
      <line class="cls-2" x1="558.06" y1="206.55" x2="558.06" y2="677.38"/>
      <line class="cls-2" x1="716.92" y1="481.63" x2="716.92" y2="605.92"/>
      <line class="cls-2" x1="796.05" y1="444.48" x2="796.05" y2="523.36"/>
      <line class="cls-2" x1="705.25" y1="685.68" x2="753.05" y2="685.68"/>
      <g>
        <line class="cls-2" x1="637.49" y1="196.43" x2="637.49" y2="329.67"/>
        <line class="cls-2" x1="637.49" y1="397.75" x2="637.49" y2="682.16"/>
      </g>
    </g>
  </g>
  <g>
    <path class="cls-1" d="M996.13,781.04V215.65h127.74c35.36,0,63.17,5.7,83.41,17.1,20.24,11.41,34.78,27.92,43.63,49.56,8.83,21.64,13.26,47.36,13.26,77.13,0,20.94-2.33,40.73-6.98,59.33-4.66,18.62-12.56,34.44-23.73,47.47-11.17,13.03-26.99,21.64-47.46,25.83l86.55,288.98h-51.65l-83.07-277.81h-88.65v277.81h-53.05ZM1049.18,464.14h71.9c23.73,0,42.11-3.95,55.14-11.87,13.02-7.91,22.34-19.54,27.92-34.9s8.38-34.66,8.38-57.94c0-34.9-6.05-60.96-18.15-78.18-12.11-17.21-36.07-25.83-71.9-25.83h-73.29v208.71Z"/>
    <path class="cls-1" d="M1393.3,787.33c-15.83,0-29.79-4.08-41.88-12.22-12.11-8.14-21.64-18.96-28.62-32.46-6.98-13.49-10.47-28.62-10.47-45.37,0-20.47,2.9-37.92,8.72-52.35,5.81-14.42,15.12-27.33,27.92-38.74,12.79-11.4,29.67-22.57,50.61-33.5,20.94-10.93,46.07-23.14,75.39-36.65v-28.62c0-24.66-1.4-44.08-4.19-58.28-2.79-14.19-7.92-24.31-15.36-30.36-7.45-6.04-17.69-9.07-30.71-9.07-10.24,0-19.66,2.09-28.27,6.28-8.62,4.19-15.36,11.29-20.24,21.29-4.89,10.01-7.33,23.85-7.33,41.53v13.96l-50.26-.7c.46-40.94,9.18-71.31,26.18-91.09,16.98-19.77,44.55-29.67,82.72-29.67s61.77,10.82,76.43,32.46c14.66,21.64,21.99,55.26,21.99,100.86v196.14c0,6.98.23,15.95.7,26.87.46,10.94,1.05,21.29,1.75,31.06.7,9.77,1.28,17.22,1.74,22.34h-45.37c-1.4-8.83-2.91-18.73-4.54-29.67-1.64-10.93-2.68-19.65-3.14-26.18-5.58,16.29-15.6,30.71-30.02,43.28-14.43,12.56-32.35,18.85-53.75,18.85ZM1410.06,744.05c10.23,0,19.42-2.44,27.57-7.33,8.14-4.89,15.47-11.05,21.99-18.5,6.51-7.44,11.63-14.89,15.36-22.34v-125.64c-19.54,10.71-36.42,20.13-50.61,28.27-14.2,8.15-25.72,16.17-34.55,24.08-8.85,7.92-15.48,16.87-19.89,26.87-4.43,10.01-6.63,21.76-6.63,35.25,0,21.41,4.65,36.65,13.96,45.72,9.3,9.07,20.24,13.61,32.81,13.61Z"/>
    <path class="cls-1" d="M1600.61,781.04v-403.46h50.96v41.88c13.02-13.96,27.68-25.48,43.98-34.55,16.28-9.07,33.96-13.61,53.05-13.61,13.49,0,24.78,3.38,33.85,10.12,9.07,6.75,16.05,16.52,20.94,29.32,4.89,12.8,7.33,28.27,7.33,46.42v323.88h-50.96v-312.71c0-20.94-3.26-35.71-9.77-44.32-6.52-8.61-16.29-12.91-29.32-12.91-11.17,0-22.81,3.49-34.9,10.47-12.11,6.98-23.5,16.05-34.2,27.22v332.26h-50.96Z"/>
    <path class="cls-1" d="M1947.53,787.33c-15.83,0-29.79-4.08-41.88-12.22-12.11-8.14-21.64-18.96-28.62-32.46-6.98-13.49-10.47-28.62-10.47-45.37,0-20.47,2.9-37.92,8.72-52.35,5.81-14.42,15.12-27.33,27.92-38.74,12.79-11.4,29.67-22.57,50.61-33.5,20.94-10.93,46.07-23.14,75.39-36.65v-28.62c0-24.66-1.4-44.08-4.19-58.28-2.79-14.19-7.92-24.31-15.36-30.36-7.45-6.04-17.69-9.07-30.71-9.07-10.24,0-19.66,2.09-28.27,6.28-8.62,4.19-15.36,11.29-20.24,21.29-4.89,10.01-7.33,23.85-7.33,41.53v13.96l-50.26-.7c.46-40.94,9.18-71.31,26.18-91.09,16.98-19.77,44.55-29.67,82.72-29.67s61.77,10.82,76.43,32.46c14.66,21.64,21.99,55.26,21.99,100.86v196.14c0,6.98.23,15.95.7,26.87.46,10.94,1.05,21.29,1.75,31.06.7,9.77,1.28,17.22,1.74,22.34h-45.37c-1.4-8.83-2.91-18.73-4.54-29.67-1.64-10.93-2.68-19.65-3.14-26.18-5.58,16.29-15.6,30.71-30.02,43.28-14.43,12.56-32.35,18.85-53.75,18.85ZM1964.28,744.05c10.23,0,19.42-2.44,27.57-7.33,8.14-4.89,15.47-11.05,21.99-18.5,6.51-7.44,11.63-14.89,15.36-22.34v-125.64c-19.54,10.71-36.42,20.13-50.61,28.27-14.2,8.15-25.72,16.17-34.55,24.08-8.85,7.92-15.48,16.87-19.89,26.87-4.43,10.01-6.63,21.76-6.63,35.25,0,21.41,4.65,36.65,13.96,45.72,9.3,9.07,20.24,13.61,32.81,13.61Z"/>
    <path class="cls-1" d="M2233.01,781.04l-101.91-565.4h106.8l60.73,383.91,56.54-383.91h113.08l-103.31,565.4h-131.93Z"/>
    <path class="cls-1" d="M2518.49,309.18v-78.88h114.48v78.88h-114.48ZM2519.19,781.04v-403.46h113.78v403.46h-113.78Z"/>
    <path class="cls-1" d="M2827.72,788.03c-35.37,0-64.81-7.91-88.3-23.73-23.5-15.81-42.7-41.64-57.59-77.48l77.48-34.2c7.44,18.15,16.16,32.46,26.18,42.93,10,10.47,21.05,15.71,33.16,15.71,8.83,0,15.47-1.85,19.89-5.58,4.42-3.72,6.63-8.83,6.63-15.36,0-10.7-4.08-20.47-12.22-29.32-8.15-8.83-22.69-21.87-43.63-39.09l-29.32-24.43c-21.41-18.15-38.28-35.71-50.61-52.7-12.33-16.98-18.5-38.04-18.5-63.17,0-21.87,5.69-41.18,17.1-57.94,11.4-16.75,26.63-29.77,45.72-39.09,19.08-9.3,39.55-13.96,61.43-13.96,33.5,0,61.43,9.07,83.76,27.22,22.34,18.15,38.15,43.75,47.47,76.78l-74.69,33.5c-2.79-8.83-6.75-17.68-11.87-26.52-5.13-8.83-11.17-16.28-18.15-22.34-6.98-6.04-14.9-9.07-23.73-9.07-7.45,0-13.38,2.09-17.8,6.28-4.43,4.19-6.63,9.77-6.63,16.75,0,8.85,5,18.39,15.01,28.62,10,10.24,23.84,22.58,41.53,37l28.62,25.13c11.63,9.77,23.04,20.24,34.2,31.41,11.17,11.17,20.35,23.5,27.57,37,7.21,13.5,10.82,28.86,10.82,46.07,0,23.27-5.82,43.17-17.45,59.68-11.64,16.52-26.87,28.97-45.72,37.34-18.85,8.38-38.98,12.56-60.38,12.56Z"/>
  </g>
</svg>